<svg xmlns="http://www.w3.org/2000/svg" viewBox="0 0 400 400">
  <!-- Background container -->
  <rect width="400" height="400" fill="#ffffff"/>
  
  <!-- Main gear representing optimization -->
  <g transform="translate(120, 200) scale(1.5)">
    <circle cx="0" cy="0" r="60" fill="#4B5E88" opacity="0.1"/>
    <path d="M0 -70 
             L8 -65 L12 -50 L25 -45 L30 -30 L45 -25 L48 -10 
             L60 -5 L60 5 L48 10 L45 25 L30 30 L25 45 L12 50 
             L8 65 L0 70 L-8 65 L-12 50 L-25 45 L-30 30 L-45 25 
             L-48 10 L-60 5 L-60 -5 L-48 -10 L-45 -25 L-30 -30 
             L-25 -45 L-12 -50 L-8 -65 Z" 
          fill="#4B5E88"/>
  </g>

  <!-- Feature selection matrix -->
  <g transform="translate(220, 200) scale(1.5)">
    <!-- Matrix outline -->
    <rect x="-30" y="-40" width="120" height="80" fill="#FF8C42" opacity="0.9" rx="5"/>
    
    <!-- Selected features (dots) -->
    <circle cx="-10" cy="-25" r="5" fill="#ffffff"/>
    <circle cx="20" cy="-25" r="5" fill="#ffffff"/>
    <circle cx="50" cy="-25" r="5" fill="#ffffff"/>
    
    <circle cx="-10" cy="0" r="5" fill="#ffffff"/>
    <circle cx="20" cy="0" r="5" fill="#ffffff"/>
    <circle cx="50" cy="0" r="5" fill="#ffffff"/>
    
    <circle cx="-10" cy="25" r="5" fill="#ffffff"/>
    <circle cx="20" cy="25" r="5" fill="#ffffff"/>
    <circle cx="50" cy="25" r="5" fill="#ffffff"/>
    
    <!-- Selection highlights -->
    <circle cx="-10" cy="-25" r="8" fill="none" stroke="#ffffff" stroke-width="2"/>
    <circle cx="50" cy="0" r="8" fill="none" stroke="#ffffff" stroke-width="2"/>
    <circle cx="20" cy="25" r="8" fill="none" stroke="#ffffff" stroke-width="2"/>
  </g>
</svg>